FFmpeg full command line with arguments:
C:\Program Files\ffmpeg\bin\ffmpeg.exe -y -video_size 1224x970 -pixel_format rgb24 -f rawvideo -framerate 25 -color_primaries bt709 -color_trc bt709 -colorspace bt709 -i pipe: -vcodec ffv1 -pix_fmt gray -crf 17 -dst_range 0 -color_primaries bt709 -color_trc bt709 -colorspace bt709 output.avi

ffmpeg version 2022-04-28-git-ec07b15477-full_build-www.gyan.dev Copyright (c) 2000-2022 the FFmpeg developers
  built with gcc 11.2.0 (Rev10, Built by MSYS2 project)
  configuration: --enable-gpl --enable-version3 --enable-static --disable-w32threads --disable-autodetect --enable-fontconfig --enable-iconv --enable-gnutls --enable-libxml2 --enable-gmp --enable-bzlib --enable-lzma --enable-libsnappy --enable-zlib --enable-librist --enable-libsrt --enable-libssh --enable-libzmq --enable-avisynth --enable-libbluray --enable-libcaca --enable-sdl2 --enable-libdav1d --enable-libdavs2 --enable-libuavs3d --enable-libzvbi --enable-librav1e --enable-libsvtav1 --enable-libwebp --enable-libx264 --enable-libx265 --enable-libxavs2 --enable-libxvid --enable-libaom --enable-libjxl --enable-libopenjpeg --enable-libvpx --enable-mediafoundation --enable-libass --enable-frei0r --enable-libfreetype --enable-libfribidi --enable-liblensfun --enable-libvidstab --enable-libvmaf --enable-libzimg --enable-amf --enable-cuda-llvm --enable-cuvid --enable-ffnvcodec --enable-nvdec --enable-nvenc --enable-d3d11va --enable-dxva2 --enable-libmfx --enable-libshaderc --enable-vulkan --enable-libplacebo --enable-opencl --enable-libcdio --enable-libgme --enable-libmodplug --enable-libopenmpt --enable-libopencore-amrwb --enable-libmp3lame --enable-libshine --enable-libtheora --enable-libtwolame --enable-libvo-amrwbenc --enable-libilbc --enable-libgsm --enable-libopencore-amrnb --enable-libopus --enable-libspeex --enable-libvorbis --enable-ladspa --enable-libbs2b --enable-libflite --enable-libmysofa --enable-librubberband --enable-libsoxr --enable-chromaprint
  libavutil      57. 24.101 / 57. 24.101
  libavcodec     59. 27.100 / 59. 27.100
  libavformat    59. 23.100 / 59. 23.100
  libavdevice    59.  6.100 / 59.  6.100
  libavfilter     8. 37.100 /  8. 37.100
  libswscale      6.  6.100 /  6.  6.100
  libswresample   4.  6.100 /  4.  6.100
  libpostproc    56.  5.100 / 56.  5.100
Input #0, rawvideo, from 'pipe:':
  Duration: N/A, start: 0.000000, bitrate: 712368 kb/s
  Stream #0:0: Video: rawvideo (RGB[24] / 0x18424752), rgb24(bt709), 1224x970, 712368 kb/s, 25 tbr, 25 tbn
Codec AVOption crf (Select the quality for constant quality mode) specified for output file #0 (output.avi) has not been used for any stream. The most likely reason is either wrong type (e.g. a video option with no video streams) or that it is a private option of some encoder which was not actually used for any stream.
Stream mapping:
  Stream #0:0 -> #0:0 (rawvideo (native) -> ffv1 (native))
Output #0, avi, to 'output.avi':
  Metadata:
    ISFT            : Lavf59.23.100
  Stream #0:0: Video: ffv1 (FFV1 / 0x31564646), gray(pc, bt709, progressive), 1224x970, q=2-31, 200 kb/s, 25 fps, 25 tbn
    Metadata:
      encoder         : Lavc59.27.100 ffv1
frame=    1 fps=0.0 q=-0.0 size=     512kB time=00:00:00.04 bitrate=104857.6kbits/s speed=4e+04x    frame=   44 fps=0.0 q=-0.0 size=   26880kB time=00:00:01.76 bitrate=125114.2kbits/s speed= 3.5x    